<?xml version="1.0" encoding="utf-8"?>
<!-- Generator: Adobe Illustrator 23.0.2, SVG Export Plug-In . SVG Version: 6.00 Build 0)  -->
<svg version="1.1" id="Layer_1" xmlns="http://www.w3.org/2000/svg" xmlns:xlink="http://www.w3.org/1999/xlink" x="0px" y="0px"
	 viewBox="0 0 164.3778992 104.3539963" style="enable-background:new 0 0 164.3778992 104.3539963;" xml:space="preserve">
<style type="text/css">
	.st0{fill:#999999;}
	.st1{fill:#1A1A1A;}
</style>
<path class="st0" d="M64.4438019,0.0029026c2.9453964,0,5.3320999,2.5229998,5.3320999,5.6362977
	c0,3.1107998-2.3867035,5.6346998-5.3320999,5.6346998c-2.9448013,0-5.3320007-2.5239-5.3320007-5.6346998
	C59.1118011,2.5259025,61.4990005,0.0029026,64.4438019,0.0029026"/>
<path class="st0" d="M52.105999,21.1469994c0,3.1058998-2.3829002,5.6259003-5.3199005,5.6259003
	s-5.3168983-2.5200005-5.3168983-5.6259003c0-3.101099,2.3809013-5.6181993,5.3168983-5.6181993
	C49.7240982,15.5288,52.105999,18.0468998,52.105999,21.1469994"/>
<path class="st0" d="M69.8417969,19.5849991c0,3.1811008-2.4335938,5.7480011-5.4379959,5.7480011
	c-3.0107002,0-5.4448013-2.5669003-5.4448013-5.7480011c0-3.1738987,2.4350014-5.754899,5.4448013-5.754899
	C67.4082031,13.8301001,69.8417969,16.4111004,69.8417969,19.5849991"/>
<path class="st0" d="M87.4473038,21.1068993c0,3.1870003-2.4512024,5.7709999-5.4683075,5.7709999
	c-3.0121994,0-5.4618988-2.5848999-5.4618988-5.7709999c0-3.1898994,2.4496994-5.7777996,5.4618988-5.7777996
	C84.9961014,15.3290997,87.4473038,17.9169998,87.4473038,21.1068993"/>
<path class="st0" d="M69.8311005,33.0570984c0,3.1758003-2.4311981,5.7539024-5.4380035,5.7539024
	c-3.0092964,0-5.4448967-2.5781021-5.4448967-5.7539024c0-3.1752987,2.4365997-5.7538986,5.4448967-5.7538986
	C67.3999023,27.3031998,69.8311005,29.8817997,69.8311005,33.0570984"/>
<path class="st0" d="M83.0938034,33.8549995c0,3.2270012-2.472702,5.8339996-5.5220032,5.8339996
	c-3.0410004,0-5.5156021-2.6069984-5.5156021-5.8339996c0-3.219799,2.4746017-5.8290997,5.5156021-5.8290997
	C80.6211014,28.0258999,83.0938034,30.6362,83.0938034,33.8549995"/>
<path class="st0" d="M51.2328987,28.2549c2.9190025,0,5.2861023,2.5009995,5.2861023,5.5859013
	c0,3.0863991-2.3670998,5.5863991-5.2861023,5.5863991c-2.9188995,0-5.2860985-2.5-5.2860985-5.5863991
	C45.9468002,30.7558994,48.3139992,28.2549,51.2328987,28.2549"/>
<g>
	<path class="st1" d="M0,53.7533989c0-1.6581993,14.5917997-1.7915001,14.9258003-0.3973999
		c0,0,5.3402996,30.5058022,5.4730988,31.6337013h0.3990002c1.6571999-5.5047989,11.8402996-31.6337013,11.8402996-31.6337013
		c0.5976028-1.3941002,13.930603-1.3261986,13.930603,0.1991997c0,0.530201-0.1347008,1.0937004-0.3969002,1.6893997
		L25.4750996,103.309082c-0.5972004,1.3925705-13.9970999,1.3925705-14.3280993,0L0.199219,55.2445984
		C0.065918,54.4496994,0,53.9516983,0,53.7533989"/>
	<path class="st1" d="M82.6278992,61.9878006l0.5791016-7.8418007c0.8907013-1.7871017,13.9375-0.8618011,14.0038986,0.2891006
		c0.0458984,0.7919006-0.3544998,5.7137985-0.3544998,5.7137985c0.0381012-3.7040977,9.0664978-6.5585976,13.4453964-6.5585976
		c1.3212051,0,1.9248047-0.1162033,2.5097046,0.0741997c0.794899,0.2617989-1.0419998,12.2685966-1.9472046,12.5429955
		c-1.7128983,0.5214996-3.069397,0.3594055-5.8837967,1.0830002c-3.7041016,0.9522018-7.8936005,3.6826019-8.7627029,6.0518036
		l-2.8769989,29.3808365c-0.197197,2.1230545-15.0526962,1.5234375-14.7256012,0.0986328
		C78.6151962,102.8217697,82.2919998,64.2045975,82.6278992,61.9878006"/>
	<path class="st1" d="M138.8056946,31.6641006l-4.1796875,40.5893021l0.3983917,0.1005936l13.9297028-19.1967964
		c0.9971008-1.2602005,15.4237976-1.4243011,15.4237976-0.4970016c0,0.4658012-0.3964996,1.1596031-1.1923981,2.0903015
		l-15.8222046,20.8876991l13.5341949,25.6728287c0.3291016,0.6630936,0.7656097,1.6709061,0.4970093,2.1298828
		c-0.4677124,0.7949219-15.125,1.1611404-15.7236023-0.1015625l-11.4423981-23.2236481l-0.3973999,0.0996017l-2.289093,22.3408508
		c-0.1982117,2.1220703-14.7266083,2.1220703-14.7266083,0l7.2657013-70.8911514
		C124.277298,29.5410004,138.8056946,29.5410004,138.8056946,31.6641006"/>
	<path class="st1" d="M70.7099991,54.3511009c0.2002029-1.9922028-14.5268974-2.0219994-14.7271004,0.1005974l-1.5727005,15.9785004
		l-3.3139992,32.1249695c0,2.1220703,14.528801,2.1220703,14.7269974,0l2.2876053-22.3417664l0.796402-7.9609985l0.7388-7.3867035
		C69.9750977,61.6400986,70.3291016,58.1352005,70.7099991,54.3511009"/>
</g>
</svg>
